<svg id="Capa_1" enable-background="new 0 0 499.27 499.27" height="512" viewBox="0 0 499.27 499.27" width="512" xmlns="http://www.w3.org/2000/svg"><g><path d="m233.93 331.987c-68.468 0-123.972 55.504-123.972 123.972v22.379c-3.38-22.337-17.218-35.518-36.692-47.712-11.072-6.934-12.289-8.576-12.289-34.889 0-9.665-7.835-17.5-17.5-17.5s-17.5 7.835-17.5 17.5c0 28.875 1.387 47.441 28.713 64.553 17.892 11.204 21.076 17.387 21.076 29.184h282.136v-33.516c0-68.467-55.505-123.971-123.972-123.971z" fill="#8bb6ef"/><path d="m316.683 484.109v-31.667c0-45.704-37.05-82.754-82.754-82.754-45.704 0-82.754 37.05-82.754 82.754v31.667z" fill="#8bb6ef"/><path d="m242.613 375.51c23.936 10.766 40.773 36.316 40.773 66.134v7.174c0 11.168-9.053 20.221-20.221 20.221h-111.989v20.437h165.507v-31.667c0-42.772-32.448-77.958-74.07-82.299z" fill="#8388ef"/><g><path d="m151.176 499.27c-3.313 0-6-2.687-6-6v-35.828c0-48.939 39.814-88.754 88.753-88.754 3.313 0 6 2.686 6 6s-2.686 6-5.999 6c-42.322 0-76.754 34.432-76.754 76.754v35.828c0 3.313-2.687 6-6 6z" fill="#6280cc"/></g><ellipse cx="414.042" cy="282.657" fill="#ffc7b6" rx="41.055" ry="41.055" transform="matrix(.924 -.383 .383 .924 -76.651 179.963)"/><ellipse cx="53.817" cy="282.657" fill="#ffc7b6" rx="41.055" ry="41.055" transform="matrix(.928 -.373 .373 .928 -101.62 40.519)"/><path d="m77.301 1.187c-32.288 13.549-19.438 153.123-19.438 153.123l142.328-59.729c0 .001-90.602-106.944-122.89-93.394z" fill="#8bb6ef"/><path d="m390.558 1.187c32.288 13.55 19.438 153.124 19.438 153.124l-142.328-59.729s90.602-106.945 122.89-93.395z" fill="#8bb6ef"/><path d="m268.914 382.278h-69.969c-86.946 0-153.856-68.341-157.43-155.591 0-86.946 70.484-157.43 157.43-157.43h69.969c86.946 0 154.883 70.762 154.883 157.708 0 86.946-67.937 155.313-154.883 155.313z" fill="#ffc7b6"/><path d="m268.914 69.036h-20.188c70.488 0 127.63 57.142 127.63 127.63v10.839c0 70.488-57.142 127.63-127.63 127.63h-79.581c-67.455 0-122.68-52.332-127.309-118.611-.205 3.288-.321 6.601-.321 9.941 0 86.946 70.484 157.43 157.43 157.43h69.969c86.946 0 157.43-70.484 157.43-157.43 0-86.945-70.484-157.429-157.43-157.429z" fill="#ef95b6"/><path d="m272.404 53.555h-76.948c-95.618 0-173.132 77.514-173.132 173.132 0 21.649 21.256 39.762 22.114 38.237 29.66-52.773 86.171-88.43 151.018-88.43h76.948c64.722 0 121.141 35.519 150.846 88.124 4.244 7.515 22.285-16.282 22.285-37.932 0-95.617-77.514-173.131-173.131-173.131z" fill="#8bb6ef"/><g><ellipse cx="140.006" cy="291.69" fill="#d07297" rx="17.575" ry="17.575" transform="matrix(.707 -.707 .707 .707 -165.249 184.433)"/><ellipse cx="327.853" cy="291.69" fill="#d07297" rx="17.575" ry="17.575" transform="matrix(.23 -.973 .973 .23 -31.359 543.756)"/><g><path d="m154.239 245.674c-.918 0-1.849-.211-2.723-.657-.028-.014-5.282-2.598-11.51-2.598-6.227 0-11.482 2.584-11.534 2.61-2.956 1.474-6.559.288-8.047-2.66-1.488-2.949-.326-6.538 2.616-8.04.784-.4 7.921-3.91 16.966-3.91s16.182 3.51 16.966 3.91c2.951 1.507 4.123 5.121 2.616 8.072-1.062 2.077-3.167 3.272-5.35 3.273z" fill="#d07297"/></g><g><path d="m342.086 245.674c-.918 0-1.849-.211-2.723-.657-.028-.014-5.282-2.598-11.51-2.598s-11.482 2.584-11.534 2.61c-2.957 1.474-6.56.288-8.047-2.66-1.488-2.949-.326-6.538 2.616-8.04.784-.4 7.921-3.91 16.966-3.91s16.182 3.51 16.966 3.91c2.951 1.507 4.123 5.121 2.616 8.072-1.062 2.077-3.167 3.272-5.35 3.273z" fill="#d07297"/></g><g><path d="m233.929 315.265c-12.999 0-23.575-10.576-23.575-23.575 0-3.313 2.687-6 6-6s6 2.687 6 6c0 6.382 5.192 11.575 11.575 11.575s11.575-5.192 11.575-11.575c0-3.313 2.687-6 6-6s6 2.687 6 6c0 12.999-10.575 23.575-23.575 23.575z" fill="#d07297"/></g></g><g><path d="m157.581 334.615h-49.071c-3.313 0-6-2.686-6-6 0-3.313 2.687-6 6-6h49.071c3.313 0 6 2.687 6 6s-2.687 6-6 6z" fill="#d07297"/></g><g><path d="m157.581 354.167h-49.071c-3.313 0-6-2.686-6-6s2.687-6 6-6h49.071c3.313 0 6 2.686 6 6s-2.687 6-6 6z" fill="#d07297"/></g><g><path d="m359.35 334.615h-49.071c-3.314 0-6-2.686-6-6 0-3.313 2.686-6 6-6h49.071c3.313 0 6 2.687 6 6s-2.687 6-6 6z" fill="#d07297"/></g><g><path d="m359.35 354.167h-49.071c-3.314 0-6-2.686-6-6s2.686-6 6-6h49.071c3.313 0 6 2.686 6 6s-2.687 6-6 6z" fill="#d07297"/></g><circle cx="233.93" cy="417.4" fill="#ffe266" r="27.824"/><path d="m233.93 389.576c-1.411 0-2.796.107-4.151.309 9.559 1.626 16.844 9.927 16.844 19.949 0 11.188-9.07 20.259-20.259 20.259-10.022 0-18.323-7.285-19.949-16.844-.203 1.355-.31 2.74-.31 4.15 0 15.367 12.457 27.824 27.824 27.824s27.824-12.457 27.824-27.824c.001-15.366-12.457-27.823-27.823-27.823z" fill="#efaa66"/><g><path d="m233.93 447.024c-3.314 0-6-2.686-6-6v-20.474c0-3.313 2.686-6 6-6 3.313 0 6 2.687 6 6v20.475c0 3.313-2.687 5.999-6 5.999z" fill="#d0844b"/></g><g><path d="m129.821 117.235c-3.232 0-6.403-1.564-8.331-4.455-3.063-4.595-1.82-10.804 2.775-13.867 1.693-1.128 6.92-4.396 10.719-5.94 5.116-2.08 10.949.382 13.029 5.499 2.08 5.116-.382 10.95-5.499 13.029-1.551.63-5.121 2.697-7.157 4.054-1.704 1.136-3.63 1.68-5.536 1.68z" fill="#fff"/></g><g><path d="m82.369 161.72c-1.831 0-3.683-.502-5.344-1.555-4.665-2.956-6.05-9.135-3.094-13.8 9.089-14.342 19.626-24.524 26.866-30.541 4.248-3.529 10.552-2.948 14.082 1.299 3.53 4.248 2.948 10.552-1.299 14.082-6.134 5.098-15.061 13.723-22.756 25.865-1.903 3.006-5.144 4.65-8.455 4.65z" fill="#fff"/></g><path d="m428.393 364.968 8.214 23.098c.352.989 1.048 1.773 1.927 2.168l20.521 9.246c2.899 1.306 2.899 5.926 0 7.232l-20.521 9.246c-.879.396-1.575 1.18-1.927 2.168l-8.214 23.098c-1.16 3.263-5.265 3.263-6.425 0l-8.214-23.098c-.352-.989-1.048-1.773-1.927-2.168l-20.521-9.246c-2.899-1.306-2.899-5.926 0-7.232l20.521-9.246c.879-.396 1.575-1.18 1.927-2.168l8.214-23.098c1.161-3.263 5.265-3.263 6.425 0z" fill="#b2e7f1"/><ellipse cx="467.379" cy="479.561" fill="#8bb6ef" rx="17.937" ry="17.937" transform="matrix(.23 -.973 .973 .23 -106.735 824.256)"/><circle cx="478.771" cy="364.573" fill="#8bb6ef" r="7.737"/><path d="m272.404 53.555h-28.546c84.703 0 153.369 56.913 153.369 127.119v.001c-.185 11.06-10.697 7.587-15.671 2.405-29.25-30.468-80.364-39.258-137.698-39.258h-68.165c-57.445 0-97.812 34.961-133.78 64.928-8.279 6.898-14.135-.527-17.179-10.94-1.577 9.392-2.411 19.037-2.411 28.878 0 21.649 21.256 39.763 22.114 38.237 29.66-52.773 86.171-88.43 151.018-88.43h76.948c64.722 0 121.141 35.519 150.846 88.125 4.244 7.515 22.285-16.282 22.285-37.932.001-95.619-77.513-173.133-173.13-173.133z" fill="#8388ef"/><g><path d="m333.421 137.135c-3.314 0-6-2.687-6-6v-11.019c0-3.313 2.686-6 6-6 3.313 0 6 2.687 6 6v11.019c0 3.314-2.686 6-6 6z" fill="#6280cc"/></g><g><path d="m367.532 164.424c-3.314 0-6-2.686-6-6v-11.019c0-3.313 2.686-6 6-6s6 2.687 6 6v11.019c0 3.313-2.686 6-6 6z" fill="#6280cc"/></g></g></svg>